<?xml version="1.0" encoding="utf-8"?>
<!-- Generator: Adobe Illustrator 24.1.0, SVG Export Plug-In . SVG Version: 6.00 Build 0)  -->
<svg version="1.2" baseProfile="tiny" id="Layer_1" xmlns="http://www.w3.org/2000/svg" xmlns:xlink="http://www.w3.org/1999/xlink"
	 x="0px" y="0px" viewBox="0 0 69 23" xml:space="preserve">
<g>
	<path d="M3.5,6.7h1.2v6.4c0,2.5-1.3,3.3-2.9,3.3c-0.5,0-1-0.1-1.3-0.2l0.2-1c0.3,0.1,0.6,0.2,1,0.2c1.1,0,1.8-0.5,1.8-2.4V6.7z"/>
	<path d="M12.2,11.8H8.5v3.5h4.2v1H7.2V6.7h5.2v1H8.5v3h3.7V11.8z"/>
	<path d="M16.2,13.2l-1,3H14l3.3-9.6h1.5l3.3,9.6h-1.3l-1-3H16.2z M19.4,12.3l-0.9-2.8c-0.2-0.6-0.4-1.2-0.5-1.8h0
		c-0.1,0.6-0.3,1.2-0.5,1.7l-0.9,2.8H19.4z"/>
	<path d="M23.8,16.3V6.7h1.4l3.1,4.9c0.7,1.1,1.3,2.1,1.7,3.1l0,0c-0.1-1.3-0.1-2.4-0.1-3.9v-4H31v9.6h-1.3l-3-4.9
		c-0.7-1.1-1.3-2.2-1.8-3.2l0,0c0.1,1.2,0.1,2.4,0.1,4v4.1H23.8z"/>
	<path d="M37.1,6.8c0.5-0.1,1.4-0.2,2.3-0.2c1.2,0,2,0.2,2.6,0.7c0.5,0.4,0.8,0.9,0.8,1.7c0,0.9-0.6,1.7-1.6,2.1v0
		c0.9,0.2,2,1,2,2.4c0,0.8-0.3,1.5-0.8,1.9c-0.7,0.6-1.8,0.9-3.3,0.9c-0.9,0-1.5-0.1-1.9-0.1V6.8z M38.3,10.7h1.1
		c1.3,0,2.1-0.7,2.1-1.6c0-1.1-0.9-1.6-2.1-1.6c-0.6,0-0.9,0-1.1,0.1V10.7z M38.3,15.3c0.2,0,0.6,0.1,1,0.1c1.3,0,2.5-0.5,2.5-1.9
		c0-1.3-1.1-1.9-2.5-1.9h-1V15.3z"/>
	<path d="M50.2,11.8h-3.7v3.5h4.2v1h-5.4V6.7h5.2v1h-3.9v3h3.7V11.8z"/>
	<path d="M54.2,13.2l-1,3h-1.3l3.3-9.6h1.5l3.3,9.6h-1.3l-1-3H54.2z M57.4,12.3l-0.9-2.8c-0.2-0.6-0.4-1.2-0.5-1.8h0
		c-0.1,0.6-0.3,1.2-0.5,1.7l-0.9,2.8H57.4z"/>
	<path d="M62.7,6.7v5.7c0,2.2,1,3.1,2.2,3.1c1.4,0,2.3-0.9,2.3-3.1V6.7h1.3v5.6c0,2.9-1.6,4.2-3.6,4.2c-2,0-3.4-1.1-3.4-4.1V6.7
		H62.7z"/>
</g>
</svg>
